<svg width="40" height="40" viewBox="0 0 40 40" fill="none" xmlns="http://www.w3.org/2000/svg">
<path d="M0 5C0 2.23858 2.23858 0 5 0H35C37.7614 0 40 2.23858 40 5V35C40 37.7614 37.7614 40 35 40H5C2.23858 40 0 37.7614 0 35V5Z" fill="#DDEEF2"/>
<path d="M10.2929 19.2929C9.90237 19.6834 9.90237 20.3166 10.2929 20.7071L16.6569 27.0711C17.0474 27.4616 17.6805 27.4616 18.0711 27.0711C18.4616 26.6805 18.4616 26.0474 18.0711 25.6569L12.4142 20L18.0711 14.3431C18.4616 13.9526 18.4616 13.3195 18.0711 12.9289C17.6805 12.5384 17.0474 12.5384 16.6569 12.9289L10.2929 19.2929ZM29 19L11 19V21L29 21V19Z" fill="#029AAD"/>
</svg>
