<svg width="50" height="50" viewBox="0 0 50 50" fill="none" xmlns="http://www.w3.org/2000/svg">
<rect width="50" height="50" rx="10" fill="#DDEEF2"/>
<path d="M31.5566 28.89C31.6233 28.9637 31.6666 29.0591 31.6666 29.1666C31.6666 29.3971 31.4804 29.5833 31.25 29.5833C31.1375 29.5833 31.0358 29.5379 30.9612 29.4654L29.007 27.2946C28.8925 27.1658 28.727 27.0833 28.5416 27.0833C28.1966 27.0833 27.9166 27.3633 27.9166 27.7083C27.9166 27.805 27.9408 27.8958 27.98 27.9779C28.8808 29.8516 29.2308 30.4366 29.4358 31.6362C29.7345 33.3875 30.8333 33.3366 30.8333 35.4166H34.5833V27.9166H30.6841L31.5566 28.89Z" fill="#029AAD"/>
<path d="M35.2083 25H26.6666L25.4166 26.0417L26.6666 27.0833H27.23C27.4645 26.5925 27.9625 26.25 28.5416 26.25C29.2537 26.25 29.5625 26.6667 29.9379 27.0833H35.2083C35.7837 27.0833 36.25 26.6171 36.25 26.0417C36.25 25.4662 35.7837 25 35.2083 25Z" fill="#029AAD"/>
<path d="M33.75 24.1667C32.9955 23.6992 31.4284 22.9167 30.5788 22.9167C29.9205 22.9167 29.305 23.195 28.3334 24.1667H33.75Z" fill="#029AAD"/>
<path d="M27.5933 29.09C27.2495 28.3804 27.1591 28.2679 27.107 27.9167H26.3654L24.1158 26.0417L26.3654 24.1667H27.1554C28.0341 23.2879 28.8525 22.3934 29.9754 22.15L27.4733 14.4513C27.4179 14.2867 27.2662 14.1667 27.0833 14.1667C27.0395 14.1667 26.9987 14.1788 26.9587 14.1921L14.4483 18.3604C14.2854 18.4171 14.1666 18.5679 14.1666 18.75C14.1666 18.7929 14.1787 18.8317 14.1912 18.8709L19.6104 35.5488C19.6654 35.7134 19.817 35.8334 20 35.8334C20.0437 35.8334 20.0845 35.8213 20.1245 35.8079L28.9495 32.8671C28.8116 32.5704 28.69 32.2188 28.6145 31.7763C28.46 30.8709 28.2237 30.3859 27.5933 29.09ZM16.6983 19.8067L19.1304 18.9967L19.9487 21.515L17.507 22.3284L16.6983 19.8067ZM20.1808 27.2367C19.6908 26.9734 20.1241 27.2063 17.6854 25.8963L18.2766 24.795L19.6387 25.5263L20.9216 22.9604L22.04 23.5196C20.1295 27.3396 20.437 26.725 20.1808 27.2367ZM22.2916 20C21.9466 20 21.6666 19.72 21.6666 19.375C21.6666 19.0992 21.8466 18.8675 22.0945 18.7846L25.8445 17.5346C25.907 17.5138 25.9725 17.5 26.0416 17.5C26.3866 17.5 26.6666 17.78 26.6666 18.125C26.6666 18.4009 26.4866 18.6325 26.2387 18.7154L22.4887 19.9654C22.4262 19.9863 22.3608 20 22.2916 20ZM23.5416 22.9167C23.1966 22.9167 22.9166 22.6367 22.9166 22.2917C22.9166 22.0159 23.0966 21.7842 23.3445 21.7013L27.0945 20.4513C27.157 20.4304 27.2225 20.4167 27.2916 20.4167C27.6366 20.4167 27.9166 20.6967 27.9166 21.0417C27.9166 21.3175 27.7366 21.5492 27.4887 21.6321L23.7387 22.8821C23.6762 22.9029 23.6108 22.9167 23.5416 22.9167Z" fill="#029AAD"/>
</svg>
