<svg width="50" height="50" viewBox="0 0 50 50" fill="none" xmlns="http://www.w3.org/2000/svg">
<rect width="50" height="50" rx="10" fill="#DDEEF2"/>
<path d="M23.75 30C23.75 30.7884 23.4737 31.5121 23.0142 32.0834H33.3333C34.4842 32.0834 35.4167 31.1509 35.4167 30V29.1667H23.75V30Z" fill="#029AAD"/>
<path d="M32.5 16.25V14.5833C32.5 14.1233 32.1267 13.75 31.6667 13.75C31.2067 13.75 30.8334 14.1233 30.8334 14.5833V17.7083C30.8334 18.0533 30.5534 18.3333 30.2084 18.3333C29.8634 18.3333 29.5834 18.0533 29.5834 17.7083V16.25H27.9167V14.5833C27.9167 14.1233 27.5434 13.75 27.0834 13.75C26.6234 13.75 26.25 14.1233 26.25 14.5833V17.7083C26.25 18.0533 25.97 18.3333 25.625 18.3333C25.28 18.3333 25 18.0533 25 17.7083V16.25H23.3334V14.5833C23.3334 14.1233 22.96 13.75 22.5 13.75C22.04 13.75 21.6667 14.1233 21.6667 14.5833V17.7083C21.6667 18.0533 21.3867 18.3333 21.0417 18.3333C20.6967 18.3333 20.4167 18.0533 20.4167 17.7083V16.25H20C19.0796 16.25 18.3334 16.9963 18.3334 17.9167V30C18.3334 31.1508 19.2659 32.0833 20.4167 32.0833C21.5675 32.0833 22.5 31.1508 22.5 30V27.9167H34.1667V17.9167C34.1667 16.9963 33.4205 16.25 32.5 16.25ZM30.153 21.8579L26.403 25.6079C26.2542 25.7479 26.0538 25.8333 25.8334 25.8333C25.603 25.8333 25.3946 25.74 25.2442 25.5892L23.1609 23.5058C23.01 23.3554 22.9167 23.1471 22.9167 22.9167C22.9167 22.4567 23.29 22.0833 23.75 22.0833C23.9805 22.0833 24.1888 22.1767 24.3392 22.3275L25.8521 23.8404L29.0138 20.6421C29.1625 20.5021 29.363 20.4167 29.5834 20.4167C30.0434 20.4167 30.4167 20.79 30.4167 21.25C30.4167 21.49 30.3155 21.7063 30.153 21.8579Z" fill="#029AAD"/>
<path d="M20.4166 33.3334C18.5787 33.3334 17.0833 31.8379 17.0833 30V17.9167H15.8333C15.6029 17.9167 15.4166 18.1029 15.4166 18.3334V35.4167C15.4166 35.6471 15.6029 35.8334 15.8333 35.8334H30.8333C31.0637 35.8334 31.25 35.6471 31.25 35.4167V33.3334H20.4166Z" fill="#029AAD"/>
</svg>
