<svg width="50" height="50" viewBox="0 0 50 50" fill="none" xmlns="http://www.w3.org/2000/svg">
<rect width="50" height="50" rx="10" fill="#DDEEF2"/>
<path d="M22.6404 21.25L23.94 19.1713C24.4304 18.3858 25.2762 17.9167 26.2029 17.9167H30V13.75C30 13.52 29.8133 13.3333 29.5833 13.3333H21.25V16.6667C21.25 17.3558 20.6891 17.9167 20 17.9167H16.6666V21.25H22.6404ZM23.5416 15H27.7083C28.0537 15 28.3333 15.28 28.3333 15.625C28.3333 15.97 28.0537 16.25 27.7083 16.25H23.5416C23.1962 16.25 22.9166 15.97 22.9166 15.625C22.9166 15.28 23.1962 15 23.5416 15Z" fill="#029AAD"/>
<path d="M29.1667 23.3333C25.485 23.3333 22.5 26.3183 22.5 30C22.5 33.6817 25.485 36.6667 29.1667 36.6667C32.8483 36.6667 35.8333 33.6817 35.8333 30C35.8333 26.3183 32.8483 23.3333 29.1667 23.3333ZM29.1667 29.1667C30.7746 29.1667 32.0833 30.2879 32.0833 31.6667C32.0833 32.7971 31.2033 33.7533 30 34.0613V34.1667C30 34.6267 29.6267 35 29.1667 35C28.7067 35 28.3333 34.6267 28.3333 34.1667V34.0613C27.2363 33.7729 26.5733 32.9588 26.3287 32.4371C26.2754 32.3225 26.25 32.2021 26.25 32.0833C26.25 31.62 26.6271 31.25 27.0833 31.25C27.3967 31.25 27.6967 31.4279 27.8379 31.7296C27.8733 31.7992 28.2533 32.5 29.1667 32.5C29.8325 32.5 30.4167 32.1104 30.4167 31.6667C30.4167 31.2229 29.8325 30.8333 29.1667 30.8333C27.5588 30.8333 26.25 29.7121 26.25 28.3333C26.25 27.2029 27.13 26.2467 28.3333 25.9388V25.8333C28.3333 25.3733 28.7067 25 29.1667 25C29.6267 25 30 25.3733 30 25.8333V25.9388C31.0971 26.2271 31.76 27.0413 32.0046 27.5629C32.0579 27.6775 32.0833 27.7979 32.0833 27.9167C32.0833 28.3792 31.7071 28.75 31.25 28.75C30.9375 28.75 30.6375 28.5725 30.4954 28.2704C30.46 28.2008 30.08 27.5 29.1667 27.5C28.5008 27.5 27.9167 27.8896 27.9167 28.3333C27.9167 28.7771 28.5008 29.1667 29.1667 29.1667Z" fill="#029AAD"/>
<path d="M16.9616 17.0833H20C20.23 17.0833 20.4166 16.8967 20.4166 16.6667V13.6283C20.4166 13.4504 20.2716 13.3333 20.1195 13.3333C20.047 13.3333 19.9733 13.3596 19.9133 13.42L16.7529 16.5804C16.6916 16.6413 16.6666 16.7171 16.6666 16.7908C16.6666 16.9408 16.7854 17.0833 16.9616 17.0833Z" fill="#029AAD"/>
<path d="M29.1667 22.0833C30.3446 22.0833 31.4587 22.3475 32.4633 22.8092L33.2696 20.5925C33.31 20.4812 33.3333 20.3637 33.3333 20.245C33.3333 19.6521 32.8737 19.1667 32.2217 19.1667H26.2029C25.7137 19.1667 25.2592 19.4187 24.9996 19.8337L23.3333 22.5H14.8487C14.1854 22.5 13.75 23.0121 13.75 23.5442C13.75 23.6737 13.7688 23.8029 13.8125 23.925L17.2462 33.4633C17.3983 33.885 17.7987 34.1667 18.2475 34.1667H22.4442C21.6921 32.9554 21.25 31.5308 21.25 30C21.25 25.5733 24.845 22.0833 29.1667 22.0833Z" fill="#029AAD"/>
</svg>
