<svg width="50" height="50" viewBox="0 0 50 50" fill="none" xmlns="http://www.w3.org/2000/svg">
<rect width="50" height="50" rx="10" fill="#DDEEF2"/>
<g clip-path="url(#clip0_48_39)">
<path d="M34.7964 13.5H15.2038C14.9329 13.5 14.714 13.738 14.714 14.0324V18.8241H28.9186C29.4594 18.8241 29.8982 19.3011 29.8982 19.8889C29.8982 20.4767 29.4594 20.9537 28.9186 20.9537H15.2361L22.551 28.4074V35.0625C22.551 35.5033 22.8802 35.8611 23.2857 35.8611C23.4444 35.8611 23.5997 35.8052 23.7266 35.7014L27.1553 32.9063C27.3399 32.7556 27.4492 32.5181 27.4492 32.2674V28.4074L34.9766 20.737C35.174 20.5358 35.2862 20.2547 35.2862 19.9602V14.0324C35.2862 13.738 35.0673 13.5 34.7964 13.5Z" fill="#029AAD"/>
</g>
<defs>
<clipPath id="clip0_48_39">
<rect width="21.16" height="23" fill="white" transform="translate(14.42 13.5)"/>
</clipPath>
</defs>
</svg>
