<svg width="110" height="110" viewBox="0 0 110 110" fill="none" xmlns="http://www.w3.org/2000/svg">
<g filter="url(#filter0_d_48_20)">
<rect x="30" y="29" width="50" height="50" rx="10" fill="#029AAD" shape-rendering="crispEdges"/>
<g clip-path="url(#clip0_48_20)">
<path d="M60.8333 54.4167C57.8416 54.4167 55.4166 56.8417 55.4166 59.8333C55.4166 62.825 57.8416 65.25 60.8333 65.25C63.825 65.25 66.25 62.825 66.25 59.8333C66.25 56.8417 63.825 54.4167 60.8333 54.4167ZM62.9166 63.1667H58.75C58.29 63.1667 57.9166 62.7933 57.9166 62.3333V59.8333H59.1666V60.6667C59.1666 60.8971 59.3529 61.0833 59.5833 61.0833C59.8137 61.0833 60 60.8971 60 60.6667V59.8333H61.6666V60.6667C61.6666 60.8971 61.8529 61.0833 62.0833 61.0833C62.3137 61.0833 62.5 60.8971 62.5 60.6667V59.8333H63.75V62.3333C63.75 62.7933 63.3766 63.1667 62.9166 63.1667ZM64.1666 58.5833C64.1666 58.8137 63.9804 59 63.7679 59H57.9345C57.6862 59 57.5 58.8137 57.5 58.5833V58.1667C57.5 57.7067 57.8733 57.3333 58.3333 57.3333H59.5833V56.5C59.5833 56.2696 59.7695 56.0833 60 56.0833H61.6666C61.897 56.0833 62.0833 56.2696 62.0833 56.5V57.3333H63.3333C63.7933 57.3333 64.1666 57.7067 64.1666 58.1667V58.5833Z" fill="white"/>
<path d="M54.8155 61.5H53.3221C53.8317 61.1204 54.1667 60.5183 54.1667 59.8333C54.1667 58.6825 53.2342 57.75 52.0834 57.75C50.9325 57.75 50 58.6825 50 59.8333C50 60.5183 50.335 61.1204 50.8446 61.5H45.4167C44.9567 61.5 44.5834 61.8733 44.5834 62.3333C44.5834 62.7933 44.9567 63.1667 45.4167 63.1667H55.5525C55.23 62.6558 54.9796 62.0967 54.8155 61.5Z" fill="white"/>
<path d="M60.8334 53.5833C62.8813 53.5833 64.6934 54.5729 65.8334 56.0946V52.75H63.5417C63.1967 52.75 62.9167 52.47 62.9167 52.125C62.9167 51.78 63.1967 51.5 63.5417 51.5H65.8334V50.25H61.875C61.53 50.25 61.25 49.97 61.25 49.625C61.25 49.28 61.53 49 61.875 49H65.8334V47.75H62.7084C62.3634 47.75 62.0834 47.47 62.0834 47.125C62.0834 46.78 62.3634 46.5 62.7084 46.5H65.8334V44.8333H53.3588C52.8017 44.8333 52.2813 45.1117 51.9721 45.5754L48.9 50.1842C48.508 50.7721 47.9584 51.2371 47.3138 51.5263L45.3225 52.4192C44.8725 52.62 44.5834 53.0671 44.5834 53.5596V57.3333H46.25C46.4805 57.3333 46.6667 57.5196 46.6667 57.75C46.6667 57.9804 46.4805 58.1667 46.25 58.1667H44.5834V59C44.5834 59.46 44.9567 59.8333 45.4167 59.8333H49.1667C49.1667 58.2225 50.4725 56.9167 52.0834 56.9167C53.2421 56.9167 54.24 57.5942 54.7105 58.5729C55.2938 55.7254 57.8134 53.5833 60.8334 53.5833ZM47.9167 54.8333H46.25C46.0196 54.8333 45.8334 54.6471 45.8334 54.4167V53.8292C45.8334 53.665 45.9296 53.5163 46.0796 53.4492L47.9167 52.6254V54.8333ZM49.6142 51.5L52.6959 46.8717C52.8509 46.6396 53.1113 46.5 53.39 46.5H55.4167V51.5H49.6142Z" fill="white"/>
<path d="M47.0833 44.8333C46.6233 44.8333 46.25 44.46 46.25 44C46.25 43.54 46.6233 43.1667 47.0833 43.1667H49.5833C50.0433 43.1667 50.4167 43.54 50.4167 44C50.4167 44.46 50.0433 44.8333 49.5833 44.8333H47.0833Z" fill="white"/>
<path d="M43.75 49.4167C43.29 49.4167 42.9166 49.0433 42.9166 48.5833C42.9166 48.1233 43.29 47.75 43.75 47.75H47.0833C47.5433 47.75 47.9166 48.1233 47.9166 48.5833C47.9166 49.0433 47.5433 49.4167 47.0833 49.4167H43.75Z" fill="white"/>
</g>
</g>
<defs>
<filter id="filter0_d_48_20" x="0" y="0" width="110" height="110" filterUnits="userSpaceOnUse" color-interpolation-filters="sRGB">
<feFlood flood-opacity="0" result="BackgroundImageFix"/>
<feColorMatrix in="SourceAlpha" type="matrix" values="0 0 0 0 0 0 0 0 0 0 0 0 0 0 0 0 0 0 127 0" result="hardAlpha"/>
<feOffset dy="1"/>
<feGaussianBlur stdDeviation="15"/>
<feComposite in2="hardAlpha" operator="out"/>
<feColorMatrix type="matrix" values="0 0 0 0 0 0 0 0 0 0 0 0 0 0 0 0 0 0 0.25 0"/>
<feBlend mode="normal" in2="BackgroundImageFix" result="effect1_dropShadow_48_20"/>
<feBlend mode="normal" in="SourceGraphic" in2="effect1_dropShadow_48_20" result="shape"/>
</filter>
<clipPath id="clip0_48_20">
<rect width="25" height="25" fill="white" transform="translate(42.5 41.5)"/>
</clipPath>
</defs>
</svg>
