<svg width="150" height="50" viewBox="0 0 150 50" fill="none" xmlns="http://www.w3.org/2000/svg">
<path d="M0 10C0 4.47715 4.47715 0 10 0H140C145.523 0 150 4.47715 150 10V40C150 45.5228 145.523 50 140 50H10C4.47715 50 0 45.5228 0 40V10Z" fill="white"/>
<path d="M90.6667 22.9166H88.5833C88.1233 22.9166 87.75 23.29 87.75 23.75V26.25C87.75 26.71 88.1233 27.0833 88.5833 27.0833H90.6667V22.9166Z" fill="#029AAD"/>
<path d="M102.889 24.352L98.8308 20.5908C98.4195 20.2075 97.75 20.4983 97.75 21.0604V22.9166H91.9166V27.0833H97.75V28.94C97.75 29.5016 98.4195 29.7925 98.8304 29.4091L102.889 25.6479C103.077 25.4729 103.167 25.2362 103.167 25C103.167 24.7637 103.077 24.5275 102.889 24.352Z" fill="#029AAD"/>
<path d="M89.8333 20C89.3733 20 89 19.6267 89 19.1667C89 18.7067 89.3733 18.3334 89.8333 18.3334H91.9167C92.3767 18.3334 92.75 18.7067 92.75 19.1667C92.75 19.6267 92.3767 20 91.9167 20H89.8333Z" fill="#029AAD"/>
<path d="M88.5833 32.9167C88.1233 32.9167 87.75 32.5433 87.75 32.0833C87.75 31.6233 88.1233 31.25 88.5833 31.25H90.6667C91.1267 31.25 91.5 31.6233 91.5 32.0833C91.5 32.5433 91.1267 32.9167 90.6667 32.9167H88.5833Z" fill="#029AAD"/>
<path d="M107.333 14.1666H96.5C95.3491 14.1666 94.4166 15.0991 94.4166 16.25V21.25H96.0833V21.0604C96.0833 20.1408 96.6283 19.3095 97.4716 18.9429C98.3141 18.5758 99.2945 18.7441 99.9675 19.372L104.022 23.13C104.539 23.612 104.833 24.2925 104.833 25C104.833 25.7075 104.539 26.3879 104.026 26.8662L99.9629 30.6312C99.53 31.0358 98.9658 31.25 98.3929 31.25C98.082 31.25 97.7687 31.1866 97.472 31.0575C96.6287 30.6908 96.0833 29.86 96.0833 28.94V28.75H94.4166V33.75C94.4166 34.9008 95.3491 35.8333 96.5 35.8333H107.333C108.484 35.8333 109.417 34.9008 109.417 33.75V16.25C109.417 15.0991 108.484 14.1666 107.333 14.1666Z" fill="#029AAD"/>
</svg>
