<svg width="40" height="40" viewBox="0 0 40 40" fill="none" xmlns="http://www.w3.org/2000/svg">
<path d="M0 10C0 4.47715 4.47715 0 10 0H30C35.5228 0 40 4.47715 40 10V30C40 35.5228 35.5228 40 30 40H10C4.47715 40 0 35.5228 0 30V10Z" fill="#DDEEF2"/>
<path d="M27.3973 25.4933C25.9636 24.5053 25.6666 23.1127 25.6666 20.3333V18.6667C25.6666 15.908 23.6943 13.612 21.0829 13.106C21.2393 12.8877 21.3333 12.6223 21.3333 12.3333C21.3333 11.597 20.7363 11 19.9999 11C19.2636 11 18.6666 11.597 18.6666 12.3333C18.6666 12.6223 18.7606 12.8877 18.9169 13.106C16.3056 13.612 14.3333 15.908 14.3333 18.6667V20.3333C14.3333 23.1127 14.0363 24.5053 12.6026 25.4933C12.4313 25.6117 12.3333 25.8107 12.3333 26.0187C12.3333 26.3763 12.6236 26.6667 12.9816 26.6667H27.0183C27.3763 26.6667 27.6666 26.3763 27.6666 26.0187C27.6666 25.8107 27.5686 25.6117 27.3973 25.4933Z" fill="#029AAD"/>
<path d="M21.3334 28C21.3334 28.7363 20.7364 29.3333 20.0001 29.3333C19.2637 29.3333 18.6667 28.7363 18.6667 28V27.6667H21.3334V28Z" fill="#029AAD"/>
<circle cx="26" cy="14" r="4" fill="#FF0000"/>
</svg>
