<svg width="25" height="26" viewBox="0 0 25 26" fill="none" xmlns="http://www.w3.org/2000/svg">
<path d="M4.16667 10.9167H2.08333C1.62333 10.9167 1.25 11.29 1.25 11.75V14.25C1.25 14.71 1.62333 15.0833 2.08333 15.0833H4.16667V10.9167Z" fill="#029AAD"/>
<path d="M16.3892 12.3521L12.3309 8.59084C11.9197 8.2075 11.2501 8.49834 11.2501 9.06042V10.9167H5.41675V15.0833H11.2501V16.94C11.2501 17.5017 11.9197 17.7925 12.3305 17.4092L16.3892 13.6479C16.5772 13.4729 16.6667 13.2363 16.6667 13C16.6667 12.7638 16.5772 12.5275 16.3892 12.3521Z" fill="#029AAD"/>
<path d="M3.33333 8C2.87333 8 2.5 7.62666 2.5 7.16666C2.5 6.70666 2.87333 6.33333 3.33333 6.33333H5.41667C5.87667 6.33333 6.25 6.70666 6.25 7.16666C6.25 7.62666 5.87667 8 5.41667 8H3.33333Z" fill="#029AAD"/>
<path d="M2.08333 20.9167C1.62333 20.9167 1.25 20.5433 1.25 20.0833C1.25 19.6233 1.62333 19.25 2.08333 19.25H4.16667C4.62667 19.25 5 19.6233 5 20.0833C5 20.5433 4.62667 20.9167 4.16667 20.9167H2.08333Z" fill="#029AAD"/>
<path d="M20.8334 2.16667H10.0001C8.84925 2.16667 7.91675 3.09917 7.91675 4.25001V9.25001H9.58341V9.06042C9.58341 8.14084 10.1284 7.30959 10.9717 6.94292C11.8142 6.57584 12.7947 6.74417 13.4676 7.37209L17.5217 11.13C18.0392 11.6121 18.3334 12.2925 18.3334 13C18.3334 13.7075 18.0392 14.3879 17.5259 14.8663L13.463 18.6313C13.0301 19.0358 12.4659 19.25 11.893 19.25C11.5822 19.25 11.2688 19.1867 10.9722 19.0575C10.1288 18.6908 9.58341 17.86 9.58341 16.94V16.75H7.91675V21.75C7.91675 22.9008 8.84925 23.8333 10.0001 23.8333H20.8334C21.9843 23.8333 22.9167 22.9008 22.9167 21.75V4.25001C22.9167 3.09917 21.9843 2.16667 20.8334 2.16667Z" fill="#029AAD"/>
</svg>
