<svg width="40" height="40" viewBox="0 0 40 40" fill="none" xmlns="http://www.w3.org/2000/svg">
<path d="M0 10C0 4.47715 4.47715 0 10 0H30C35.5228 0 40 4.47715 40 10V30C40 35.5228 35.5228 40 30 40H10C4.47715 40 0 35.5228 0 30V10Z" fill="#DDEEF2"/>
<path d="M19.9999 28.6667C19.5419 28.6667 19.0756 28.6293 18.6139 28.555L18.3333 28.51V26.795C18.3323 26.263 17.8613 25.6683 17.1873 25.6663C16.9189 25.6663 16.6583 25.7647 16.4506 25.9433L15.0693 27.1313L14.8553 26.9733C14.1546 26.456 13.5379 25.8383 13.0213 25.137L12.8639 24.9237L14.0616 23.526C14.2369 23.3227 14.3333 23.0623 14.3333 22.7933C14.3333 22.1723 13.8276 21.6667 13.2066 21.6667H11.4899L11.4453 21.386C11.3706 20.9243 11.3333 20.458 11.3333 20C11.3333 19.542 11.3706 19.0757 11.4449 18.614L11.4899 18.3333H13.2066C13.8276 18.3333 14.3333 17.8277 14.3333 17.2067C14.3333 16.9377 14.2369 16.6773 14.0623 16.4733L12.8643 15.0757L13.0216 14.8623C13.5383 14.161 14.1549 13.5433 14.8556 13.026L15.0696 12.868L16.4509 14.056C16.6586 14.2347 16.9193 14.333 17.1843 14.333C17.8616 14.331 18.3326 13.7363 18.3336 13.2037V11.49L18.6143 11.445C19.0756 11.3707 19.5419 11.3333 19.9999 11.3333C20.4579 11.3333 20.9243 11.3707 21.3859 11.445L21.6666 11.49V13.205C21.6676 13.737 22.1386 14.3317 22.8126 14.3337C23.0809 14.3337 23.3416 14.2353 23.5493 14.0567L24.9306 12.8687L25.1446 13.0267C25.8453 13.544 26.4619 14.1617 26.9786 14.863L27.1359 15.0763L25.9383 16.474C25.7629 16.6773 25.6666 16.9377 25.6666 17.2067C25.6666 17.8277 26.1723 18.3333 26.7933 18.3333H28.5099L28.5549 18.614C28.6293 19.0757 28.6666 19.542 28.6666 20C28.6666 20.458 28.6293 20.9243 28.5549 21.386L28.5099 21.6667H26.7933C26.1723 21.6667 25.6666 22.1723 25.6666 22.7933C25.6666 23.0623 25.7629 23.3227 25.9376 23.5267L27.1356 24.9243L26.9783 25.1377C26.4616 25.839 25.8449 26.4567 25.1443 26.974L24.9303 27.132L23.5489 25.944C23.3416 25.765 23.0809 25.6667 22.8159 25.6667C22.1386 25.6687 21.6676 26.2633 21.6666 26.796V28.5103L21.3859 28.5553C20.9243 28.6293 20.4579 28.6667 19.9999 28.6667ZM19.9999 18C18.8969 18 17.9999 18.897 17.9999 20C17.9999 21.103 18.8969 22 19.9999 22C21.1029 22 21.9999 21.103 21.9999 20C21.9999 18.897 21.1029 18 19.9999 18Z" fill="#029AAD"/>
</svg>
